<?xml version="1.0" encoding="utf-8"?>
<!-- Generator: Adobe Illustrator 24.2.1, SVG Export Plug-In . SVG Version: 6.00 Build 0)  -->
<svg version="1.1" id="Слой_1" xmlns="http://www.w3.org/2000/svg" xmlns:xlink="http://www.w3.org/1999/xlink" x="0px" y="0px"
	 viewBox="0 0 100 100" style="enable-background:new 0 0 100 100;" xml:space="preserve">
<style type="text/css">
	.st0{display:none;fill:#D52A1E;}
	.st1{display:none;fill:#1B3994;}
	.st2{display:none;fill:#FFFFFF;}
	.st3{fill:#DE2910;}
	.st4{fill:#FFDE00;}
</style>
<rect x="-26" y="66.9" class="st0" width="152" height="33.8"/>
<rect x="-26" y="33.1" class="st1" width="152" height="33.8"/>
<rect x="-26" y="-0.7" class="st2" width="152" height="33.8"/>
<rect x="-3" y="-2" class="st3" width="159" height="102"/>
<g>
	<g transform="translate(5,5) scale(3)">
		<path id="s" class="st4" d="M12.1,9.5l3.2,9.8l-8.4-6.1h10.3l-8.3,6.1L12.1,9.5z"/>
	</g>
	<g transform="translate(10,2) rotate(23.036243)">
		<path id="s_1_" class="st4" d="M62.9,2.5l-1,11.4L56,4l10.5,4.5l-11.1,2.6L62.9,2.5z"/>
	</g>
	<g transform="translate(12,4) rotate(45.869898)">
		<path id="s_2_" class="st4" d="M85.8,4.4l-5.2,10.1L79,3.2l7.9,8.2l-11.2-2L85.8,4.4z"/>
	</g>
	<g transform="translate(12,7) rotate(69.945396)">
		<path id="s_3_" class="st4" d="M74.2-39.8l-8.9,7l3.1-11l4,10.7l-9.5-6.4L74.2-39.8z"/>
	</g>
	<g transform="translate(10,9) rotate(20.659808)">
		<path id="s_4_" class="st4" d="M71.7,6l-0.5,11.4L64.9,8l10.6,4l-11,3.1L71.7,6z"/>
	</g>
</g>
</svg>
